<svg xmlns="http://www.w3.org/2000/svg" width="24" height="24" viewBox="0 0 24 24" fill="none"><path d="M12 24C5.36471 24 0 18.6353 0 12C0 5.36471 5.36471 0 12 0C18.6353 0 24 5.36471 24 12C24 18.6353 18.5647 24 12 24ZM12 1.41176C6.14118 1.41176 1.41176 6.14118 1.41176 12C1.41176 17.8588 6.14118 22.5882 12 22.5882C17.8588 22.5882 22.5882 17.8588 22.5882 12C22.5882 6.14118 17.7882 1.41176 12 1.41176Z" fill="#0040B3"></path><path d="M5.08236 20.6823L3.81177 20.1176C4.16471 19.2705 5.29412 18.7764 6.49412 18.2117C7.69412 17.647 9.17647 17.0117 9.17647 16.2353V15.1764C8.75294 14.8235 8.04706 14.047 7.90588 12.9176C7.55294 12.5647 6.98824 11.9294 6.98824 11.0823C6.98824 10.5882 7.2 10.1647 7.34118 9.88231C7.2 9.3176 7.05883 8.25878 7.05883 7.41172C7.05883 4.65878 8.96471 2.82349 12 2.82349C12.8471 2.82349 13.9059 3.03525 14.4706 3.67055C15.8118 3.9529 16.9412 5.50584 16.9412 7.41172C16.9412 8.61172 16.7294 9.59996 16.5882 10.0941C16.7294 10.3058 16.8706 10.6588 16.8706 11.0823C16.8706 12 16.3765 12.6353 15.9529 12.9176C15.8118 14.047 15.1765 14.7529 14.7529 15.1058V16.2353C14.7529 16.8705 16.0235 17.3647 17.1529 17.7882C18.4941 18.2823 19.9059 18.847 20.4 19.9764L19.0588 20.4705C18.8471 19.9058 17.7177 19.4823 16.6588 19.1294C15.1059 18.5647 13.3412 17.9294 13.3412 16.3058V14.4705L13.6941 14.2588C13.6941 14.2588 14.5412 13.6941 14.5412 12.5647V12.0705L14.9647 11.8588C15.0353 11.8588 15.3882 11.647 15.3882 11.0823C15.3882 10.9411 15.2471 10.7294 15.1765 10.6588L14.8941 10.3764L15.0353 10.0235C15.0353 10.0235 15.3882 8.89407 15.3882 7.48231C15.3882 6.14113 14.6118 5.1529 13.9765 5.1529H13.5529L13.3412 4.79996C13.3412 4.5176 12.8471 4.23525 12 4.23525C9.81177 4.23525 8.47059 5.43525 8.47059 7.41172C8.47059 8.32937 8.82353 9.88231 8.82353 9.88231L8.89412 10.2353L8.61177 10.5882C8.54118 10.5882 8.4 10.8 8.4 11.0823C8.4 11.4353 8.82353 11.8588 9.0353 12L9.31765 12.2117V12.5647C9.31765 13.6235 10.2353 14.1882 10.2353 14.2588L10.5882 14.4705V16.3058C10.5882 18 8.75294 18.847 7.05883 19.5529C6.28236 19.8353 5.22353 20.3294 5.08236 20.6823Z" fill="#0040B3"></path></svg>